<svg width="466" height="288" viewBox="0 0 466 288" fill="none" xmlns="http://www.w3.org/2000/svg">
<path d="M464.326 193.243C459.099 179.99 438.319 178.311 421.582 177.004C421.084 177.004 420.524 176.942 420.027 176.88C422.889 172.027 428.239 164.934 432.159 159.707C434.959 155.974 437.883 152.117 440.683 148.197C445.971 140.793 447.154 134.198 444.229 128.599C439.439 119.328 426.373 119.328 420.773 119.328C413.929 119.328 405.903 120.013 397.442 120.759C391.966 121.257 386.305 121.755 380.892 122.066C378.403 122.19 376.599 122.003 375.852 121.817C375.541 116.839 382.571 102.592 387.238 92.9478C390.224 86.9127 393.273 80.6287 396.011 74.2203C397.379 71.1094 401.486 61.6523 396.508 54.0617C394.455 50.8886 390.162 47.1555 381.452 47.1555C373.861 47.1555 364.217 49.8309 354.076 52.6929C345.552 55.0572 335.846 57.7948 330.184 57.7948C329.126 57.7948 328.566 57.6703 328.318 57.6081C316.932 54.8705 315.439 54.5594 319.607 23.8861C320.354 18.4109 319.234 13.9312 316.31 10.5715C314.381 8.33165 310.71 5.65628 304.488 5.65628C294.098 5.65628 279.352 13.1224 257.949 24.446C247.683 29.9212 235.115 36.5785 229.205 38.0717C230.138 34.3387 232.44 28.8013 233.684 25.6904C234.929 22.6417 236.049 19.9042 236.733 17.7887C237.853 14.1179 237.231 10.3226 234.929 7.21173C231.631 2.66983 225.285 0.429993 216.139 0.429993C193.429 0.429993 159.521 13.869 134.945 43.858C128.91 51.1997 124.181 60.5324 120.386 70.9849C108.813 79.1355 98.2985 89.7125 88.9659 99.2318C76.7712 111.675 64.2032 124.492 56.0527 123.746C49.4576 123.061 42.5514 120.884 36.4541 118.955C29.6101 116.777 23.6994 114.911 18.162 114.911C11.3803 114.911 7.39837 117.835 5.22075 120.324C-0.192193 126.483 0.181113 135.505 1.05216 142.722C12.0025 228.894 65.3853 274.499 155.414 274.499C157.841 274.499 160.143 274.499 162.507 274.375C180.55 282.961 203.073 287.378 229.64 287.378C320.105 287.378 439.19 235.613 457.668 215.268C464.761 207.428 467.001 200.025 464.263 193.118L464.326 193.243ZM19.5931 140.482C19.1575 137.122 19.1575 135.007 19.282 133.763C22.0818 134.074 26.4992 135.505 30.8545 136.874C37.7606 139.051 45.6623 141.54 54.1239 142.411C54.995 142.535 55.9282 142.535 56.7993 142.535C72.7892 142.535 86.4772 128.536 102.28 112.422C105.702 108.938 109.124 105.454 112.609 102.032H112.671C107.756 133.327 109.187 168.853 115.222 197.536C120.324 221.739 128.599 241.399 139.3 255.274C68.0607 250.421 28.8013 212.841 19.5931 140.42V140.482ZM443.98 202.887C431.412 216.699 318.363 268.837 229.765 268.837C205.064 268.837 184.532 264.793 168.791 256.829C153.237 248.928 140.358 225.969 133.576 193.803C126.172 158.836 127.043 119.39 134.385 90.0236C134.385 90.0236 134.385 90.0236 134.447 90.0236C135.318 86.6016 136.189 83.1796 137.247 79.9443C140.482 70.1139 144.589 61.8389 149.442 55.9282C173.147 26.997 203.447 19.3442 216.201 19.3442H216.263C211.846 29.9834 207.055 41.867 212.841 50.6397C214.708 53.4395 219.188 58.417 229.951 57.1726C238.475 56.1771 251.541 49.2709 266.722 41.1826C277.797 35.2719 292.356 27.5569 300.631 25.2549C296.773 55.6794 298.453 69.865 324.025 75.9623C332.673 78.0155 346.112 74.4691 359.115 70.8605C366.519 68.8073 374.11 66.6297 379.274 66.1319C379.15 66.3808 379.025 66.6919 378.901 67.003C376.287 73.0381 373.301 79.0732 370.439 84.9217C360.609 105.018 352.831 120.884 359.924 132.207C363.533 137.993 370.003 140.918 379.212 140.918C380.083 140.918 380.954 140.918 381.887 140.855C387.487 140.544 393.335 140.047 399.059 139.549C407.085 138.865 414.738 138.18 420.773 138.18C422.453 138.18 423.822 138.18 424.942 138.305C422.453 141.789 419.84 145.273 417.289 148.633C404.597 165.494 396.197 176.631 400.552 186.71C401.735 189.448 404.97 194.238 413.307 195.109C415.236 195.296 417.538 195.483 420.151 195.732C426.124 196.229 441.056 197.411 446.158 200.087C445.723 200.771 445.038 201.704 443.918 202.949L443.98 202.887Z" fill="currentColor"/>
<path d="M84.6106 160.081C76.46 160.081 69.8027 166.676 69.8027 174.889C69.8027 183.101 76.3978 189.696 84.6106 189.696C92.8233 189.696 99.4184 183.101 99.4184 174.889C99.4184 166.676 92.8233 160.081 84.6106 160.081Z" fill="currentColor"/>
<style>
        path { fill: #000; }
        @media (prefers-color-scheme: dark) {
            path { fill: #FFF; }
        }
    </style>
</svg>
